<?xml version="1.0" encoding="utf-8"?><!DOCTYPE svg  PUBLIC '-//W3C//DTD SVG 1.1//EN'  'http://www.w3.org/Graphics/SVG/1.1/DTD/svg11.dtd'><svg enable_background="new 0 0 640 321" height="321px" pretty_print="False" style="stroke-linejoin: round; stroke:#000; fill: none;" version="1.1" viewBox="0 0 640 321" width="640px" xmlns="http://www.w3.org/2000/svg" xmlns:xlink="http://www.w3.org/1999/xlink"><defs><style type="text/css"><![CDATA[path { fill-rule: evenodd; }]]></style></defs><metadata><views><view h="321" padding="0" w="640"><proj flip="auto" id="robinson" lon0="8.1216939"/><bbox h="32.62" w="60.92" x="78.53" y="-799.33"/></view></views></metadata><g class="" id="layer_0"><path d="M264.461625,37.114304L258.523695,35.460282L252.584481,37.165469L244.197910,42.466256L234.092729,43.591798L230.015025,39.234672L232.585487,39.497654L236.019271,33.985123L226.513719,36.946176L225.867767,36.203501L215.070308,44.026696L214.446139,49.966736L210.040435,52.682118L205.324059,50.110991L203.009933,52.639778L207.597743,53.862655L198.886036,60.343025L186.908312,60.182905L181.442612,62.098776L178.727156,59.135866L171.147859,58.517429L174.038375,50.527228L163.911640,50.084550L158.735224,51.385661L152.260880,48.802449L147.630284,50.315972L149.248250,57.110741L141.840768,60.186836L142.102112,63.021549L134.460599,72.967761L146.480243,71.879794L152.169634,70.122975L157.967497,74.512902L154.127956,77.138545L151.281977,81.349825L146.809514,82.998046L144.241482,86.383875L144.848186,90.553831L139.187429,94.732173L131.825203,104.618214L126.414251,108.664156L122.100044,110.219501L118.536994,114.918302L114.866241,115.554677L114.353644,122.487450L107.802237,125.651435L106.633643,127.852532L97.130034,132.585253L87.503393,133.852796L79.997603,142.268040L82.937466,145.613839L83.463132,153.549765L81.181910,159.235243L83.588200,163.607991L81.085735,167.712680L75.688051,170.043111L69.961966,175.489080L39.946095,197.600405L45.665459,203.958576L43.699140,204.888768L38.663551,212.861170L36.175169,215.061547L37.400243,219.332340L35.111781,222.534152L48.655090,231.101803L42.452546,239.838313L40.663702,244.618017L43.051228,248.896804L22.886658,258.327503L24.369958,268.842164L39.594298,265.589714L44.128240,267.418004L57.998897,256.868783L65.380993,253.872061L66.994377,248.845428L59.403979,247.884027L56.509181,236.462235L60.245075,231.212935L68.906881,224.774512L78.400247,224.094519L81.831142,222.937711L90.188805,217.153130L94.669149,216.441067L109.483933,215.907122L117.413285,217.478217L131.500309,221.458877L127.618794,235.653720L137.768497,243.441432L137.829959,247.715568L131.544015,256.458648L130.483362,267.339107L132.950679,269.218468L143.148380,273.147902L143.035009,278.047712L141.260200,282.320641L150.967584,281.917642L155.588762,289.228488L158.048915,289.772728L163.616067,302.222705L170.246511,309.492643L171.295246,312.350651L179.031288,309.375239L183.684806,312.215831L186.044749,307.762407L193.966258,305.402366L195.947771,302.403738L205.437703,305.286036L209.370763,305.031886L224.576006,295.865299L227.082080,296.958096L230.133649,292.181507L236.227688,294.785025L243.882731,294.063876L249.171544,300.260478L256.622344,299.874932L261.117655,303.101865L271.118465,301.665800L270.936835,294.184863L274.774257,290.384985L285.099725,290.540739L290.648095,282.522435L288.955615,278.022353L300.399555,271.251798L300.486846,269.171853L305.605331,259.573855L302.656232,253.684669L295.914809,248.955271L295.874980,247.263149L302.418269,241.569011L305.749948,242.470573L312.156509,238.731784L317.832245,232.192915L320.841601,231.658757L324.637821,227.049712L321.772552,224.988713L323.475142,221.752301L326.210292,221.375356L331.990684,217.411367L340.999212,215.670089L344.159076,223.889812L344.281003,236.561601L339.917074,241.840915L343.244532,246.977186L341.853532,249.183139L352.278322,254.391218L359.992337,263.977218L370.564114,271.700025L381.478463,270.340768L385.909842,274.336982L391.091475,274.349527L396.302890,279.492618L388.811298,288.598571L388.862928,291.521487L391.606759,291.336964L401.877804,296.532137L402.182585,300.631486L408.420200,311.103529L405.610399,315.124485L419.034118,319.000000 M419.034118,319.000000L427.576786,306.120550L423.862991,302.568030L418.682666,300.766027L415.077247,294.440109L419.279228,290.913870L417.227360,286.050792L417.459386,281.901452L425.115890,278.546136L426.365627,275.421547L424.262124,270.866519L430.052363,268.303395L431.941648,265.331473L439.630826,260.142069L440.044401,256.818633L451.439966,237.356971L444.455681,219.761425L447.423947,215.301033L448.277487,210.488317L459.802192,210.013741L464.137851,214.890466L467.577408,210.567559L471.564149,208.479295L469.998074,213.061382L472.816048,226.144100L472.259959,229.741184L482.474433,240.284652L495.280142,244.130488L498.762266,242.423354L504.916253,243.199896L506.657901,240.303195L506.227775,235.370669L507.982354,233.757082L514.078859,235.531660L522.333173,231.547466L537.142574,231.676214L541.340804,233.694753L549.648070,247.358138L549.700548,251.993276L552.016269,255.134125L559.383401,253.801145L565.293469,248.569177L555.404644,236.503327L558.422189,229.146620L562.613168,227.373539L560.080047,222.002812L549.656158,221.672594L546.943775,209.887330L548.964585,201.804240L554.370736,192.692988L564.511776,190.082409L572.631366,192.478318L571.410471,197.302084L574.884011,197.578194L578.309716,201.847232L584.001091,202.932405L592.858400,201.954223L598.757723,204.580452L600.869077,202.077751L602.957825,191.390163L596.823858,187.244346L591.003355,187.761870L588.986201,181.189621L592.681758,174.754514L590.282737,172.325813L595.564684,168.681582L592.610997,163.656858L596.387741,160.391610L599.766221,140.228500 "/><path d="M224.297917,33.679271L215.070308,44.026696L214.446139,49.966736L210.040435,52.682118L205.324059,50.110991L203.009933,52.639778L207.597743,53.862655L198.886036,60.343025L186.908312,60.182905L181.442612,62.098776L178.727156,59.135866L171.147859,58.517429L174.038375,50.527228L163.911640,50.084550L158.735224,51.385661L152.260880,48.802449L147.630284,50.315972L149.248250,57.110741L141.840768,60.186836L142.102112,63.021549L134.460599,72.967761L146.480243,71.879794L152.169634,70.122975L157.967497,74.512902L154.127956,77.138545L151.281977,81.349825L146.809514,82.998046L144.241482,86.383875L144.848186,90.553831L139.187429,94.732173L131.825203,104.618214L126.414251,108.664156L122.100044,110.219501L118.536994,114.918302L114.866241,115.554677L114.353644,122.487450L107.802237,125.651435L106.633643,127.852532L97.130034,132.585253L87.503393,133.852796L79.997603,142.268040L82.937466,145.613839L83.463132,153.549765L81.181910,159.235243L83.588200,163.607991L81.085735,167.712680L75.688051,170.043111L69.961966,175.489080L39.946095,197.600405L45.665459,203.958576L43.699140,204.888768L38.663551,212.861170L36.175169,215.061547L37.400243,219.332340L35.111781,222.534152L48.655090,231.101803L42.452546,239.838313L40.663702,244.618017L43.051228,248.896804L22.886658,258.327503L24.369958,268.842164L39.594298,265.589714L44.128240,267.418004L57.998897,256.868783L65.380993,253.872061L66.994377,248.845428L59.403979,247.884027L56.509181,236.462235L60.245075,231.212935L68.906881,224.774512L78.400247,224.094519L81.831142,222.937711L90.188805,217.153130L94.669149,216.441067L109.483933,215.907122L117.413285,217.478217L131.500309,221.458877L127.618794,235.653720L137.768497,243.441432L137.829959,247.715568L131.544015,256.458648L130.483362,267.339107L132.950679,269.218468L143.148380,273.147902L143.035009,278.047712L141.260200,282.320641L150.967584,281.917642L155.588762,289.228488L158.048915,289.772728L163.356010,302.288853L158.474856,308.845938L152.041365,311.988265L150.701722,314.276974L144.285221,314.697903 "/><path d="M38.663551,212.861170L36.175169,215.061547 "/><path d="M39.594298,265.589714L44.128240,267.418004 "/><path d="M45.665459,203.958576L43.699140,204.888768 "/><path d="M60.245075,231.212935L68.906881,224.774512L78.400247,224.094519L81.831142,222.937711L90.188805,217.153130L94.669149,216.441067L109.483933,215.907122L117.413285,217.478217L131.500309,221.458877 "/><path d="M83.463132,153.549765L81.181910,159.235243 "/><path d="M97.130034,132.585253L87.503393,133.852796 "/><path d="M107.802237,125.651435L106.633643,127.852532 "/><path d="M130.483362,267.339107L132.950679,269.218468 "/><path d="M137.768497,243.441432L137.829959,247.715568 "/><path d="M143.148380,273.147902L143.035009,278.047712 "/><path d="M617.833557,151.445623L611.110161,155.034139L602.116402,154.150813L599.221116,152.354471L596.387741,160.391610L592.610997,163.656858L595.564684,168.681582L590.282737,172.325813L592.681758,174.754514L588.986201,181.189621L591.003355,187.761870L596.823858,187.244346L602.957825,191.390163L600.869077,202.077751L598.757723,204.580452L592.858400,201.954223L584.001091,202.932405L578.309716,201.847232L574.884011,197.578194L571.410471,197.302084L572.631366,192.478318L564.511776,190.082409L554.370736,192.692988L548.964585,201.804240L546.943775,209.887330L549.656158,221.672594L560.080047,222.002812L562.613168,227.373539L558.422189,229.146620L555.404644,236.503327L565.293469,248.569177L559.383401,253.801145L552.016269,255.134125L549.700548,251.993276L549.648070,247.358138L541.340804,233.694753L537.142574,231.676214L522.333173,231.547466L514.078859,235.531660L507.982354,233.757082L506.227775,235.370669L506.657901,240.303195L504.916253,243.199896L498.762266,242.423354L495.280142,244.130488L482.474433,240.284652L472.259959,229.741184L472.816048,226.144100L469.998074,213.061382L471.564149,208.479295L467.577408,210.567559L464.137851,214.890466L459.802192,210.013741L448.277487,210.488317L447.423947,215.301033L444.455681,219.761425L451.439966,237.356971L440.044401,256.818633L439.630826,260.142069L431.941648,265.331473L430.052363,268.303395L424.262124,270.866519L426.365627,275.421547L425.115890,278.546136L417.459386,281.901452L417.227360,286.050792L419.279228,290.913870L415.077247,294.440109L418.682666,300.766027L423.862991,302.568030L427.576786,306.120550L419.034118,319.000000 M419.034118,319.000000L405.610399,315.124485L408.420200,311.103529L402.182585,300.631486L401.877804,296.532137L391.606759,291.336964L388.862928,291.521487L388.811298,288.598571L396.302890,279.492618L391.091475,274.349527L385.909842,274.336982L381.478463,270.340768L370.564114,271.700025L359.992337,263.977218L352.278322,254.391218L341.853532,249.183139L343.244532,246.977186L339.917074,241.840915L344.281003,236.561601L344.159076,223.889812L340.999212,215.670089L331.990684,217.411367L326.210292,221.375356L323.475142,221.752301L321.772552,224.988713L324.637821,227.049712L320.841601,231.658757L317.832245,232.192915L312.156509,238.731784L305.749948,242.470573L302.418269,241.569011L295.874980,247.263149L295.914809,248.955271L302.656232,253.684669L305.605331,259.573855L300.486846,269.171853L300.399555,271.251798L288.955615,278.022353L290.648095,282.522435L285.099725,290.540739L274.774257,290.384985L270.936835,294.184863L271.118465,301.665800L261.117655,303.101865L256.622344,299.874932L249.171544,300.260478L243.882731,294.063876L236.227688,294.785025L230.133649,292.181507L227.082080,296.958096L224.576006,295.865299L209.370763,305.031886L205.437703,305.286036L195.947771,302.403738L193.966258,305.402366L186.044749,307.762407L183.684806,312.215831L179.031288,309.375239L171.295246,312.350651L170.246511,309.492643L163.356010,302.288853L158.474856,308.845938L152.041365,311.988265L150.701722,314.276974L144.285221,314.697903 "/><path d="M163.356010,302.288853L158.474856,308.845938L152.041365,311.988265L150.701722,314.276974L144.285221,314.697903 "/><path d="M141.840768,60.186836L142.102112,63.021549 "/><path d="M144.241482,86.383875L144.848186,90.553831 "/><path d="M155.588762,289.228488L158.048915,289.772728 "/><path d="M152.260880,48.802449L147.630284,50.315972 "/><path d="M170.246511,309.492643L171.295246,312.350651 "/><path d="M186.044749,307.762407L183.684806,312.215831 "/><path d="M186.908312,60.182905L181.442612,62.098776 "/><path d="M195.947771,302.403738L193.966258,305.402366 "/><path d="M195.947771,302.403738L205.437703,305.286036 "/><path d="M203.009933,52.639778L207.597743,53.862655 "/><path d="M230.133649,292.181507L227.082080,296.958096L224.576006,295.865299 "/><path d="M224.297917,33.679271L225.867767,36.203501L226.513719,36.946176L236.019271,33.985123L232.585487,39.497654L230.015025,39.234672L234.092729,43.591798L244.197910,42.466256L252.584481,37.165469L258.523695,35.460282L264.461625,37.114304 "/><path d="M225.867767,36.203501L226.513719,36.946176 "/><path d="M243.882731,294.063876L249.171544,300.260478 "/><path d="M274.774257,290.384985L270.936835,294.184863L271.118465,301.665800 "/><path d="M308.605497,31.053295L299.914871,32.594022L294.044651,34.902711L287.861258,40.260450L283.117496,40.157621L269.780705,42.450452L265.291663,41.309524L264.702588,37.487879 "/><path d="M308.605497,31.053295L299.914871,32.594022L294.044651,34.902711L287.861258,40.260450L283.117496,40.157621L269.780705,42.450452L265.291663,41.309524L264.702588,37.487879 "/><path d="M274.774257,290.384985L285.099725,290.540739 "/><path d="M288.955615,278.022353L290.648095,282.522435 "/><path d="M287.861258,40.260450L283.117496,40.157621 "/><path d="M302.418269,241.569011L295.874980,247.263149L295.914809,248.955271 "/><path d="M300.486846,269.171853L300.399555,271.251798 "/><path d="M320.841601,231.658757L317.832245,232.192915L312.156509,238.731784 "/><path d="M308.656843,31.040765L311.959509,31.577540L317.851683,37.813547L331.891151,38.800994L338.482492,37.089900L336.022984,35.972608L336.039810,32.579951L342.560726,27.939634L346.156243,29.418857L348.319776,33.686989L350.721786,34.066933L353.086306,27.236773L355.176145,27.223264L344.783265,23.129059L344.000886,25.916728L336.566331,27.148803 "/><path d="M308.656843,31.040765L311.959509,31.577540L317.851683,37.813547L331.891151,38.800994L338.482492,37.089900L336.022984,35.972608L336.039810,32.579951L342.560726,27.939634L346.156243,29.418857L348.319776,33.686989L350.721786,34.066933L353.086306,27.236773L355.176145,27.223264L344.783265,23.129059L344.000886,25.916728L336.566331,27.148803 "/><path d="M321.772552,224.988713L324.637821,227.049712 "/><path d="M331.990684,217.411367L326.210292,221.375356L323.475142,221.752301 "/><path d="M356.073453,7.807469L353.547548,3.772560L354.374501,2.181591L347.373284,0.000000 M347.373284,0.000000L341.536319,6.085610L340.576617,5.385598L332.777977,11.283272L333.667761,12.503077L327.867275,16.870964L329.931383,22.716279L336.042156,27.135615 "/><path d="M356.073453,7.807469L353.547548,3.772560L354.374501,2.181591L347.373284,0.000000 M347.373284,0.000000L341.536319,6.085610L340.576617,5.385598L332.777977,11.283272L333.667761,12.503077L327.867275,16.870964L329.931383,22.716279L336.042156,27.135615 "/><path d="M343.244532,246.977186L341.853532,249.183139 "/><path d="M332.777977,11.283272L333.667761,12.503077 "/><path d="M341.536319,6.085610L340.576617,5.385598 "/><path d="M350.721786,34.066933L348.319776,33.686989 "/><path d="M355.176145,27.223264L353.086306,27.236773 "/><path d="M353.547548,3.772560L354.374501,2.181591 "/><path d="M357.453620,7.066862L357.053228,7.033476L356.259030,7.639255 "/><path d="M357.453620,7.066862L357.053228,7.033476L356.259030,7.639255 "/><path d="M357.453620,7.066862L357.053228,7.033476L356.259030,7.639255 "/><path d="M376.952233,16.717554L378.897509,18.613145L373.625561,19.627822L368.619473,18.575185L366.536534,11.573210L369.862835,9.059780L360.542822,3.381639L357.744227,6.737591 "/><path d="M376.952233,16.717554L378.897509,18.613145L373.625561,19.627822L368.619473,18.575185L366.536534,11.573210L369.862835,9.059780L360.542822,3.381639L357.744227,6.737591 "/><path d="M360.542822,3.381639L357.744227,6.737591 "/><path d="M365.105155,18.583431L361.642150,18.191336L361.251503,15.634522L364.653297,15.049842 "/><path d="M365.105155,18.583431L361.642150,18.191336L361.251503,15.634522L364.653297,15.049842 "/><path d="M361.642150,18.191336L361.251503,15.634522L364.653297,15.049842 "/><path d="M364.665780,15.031439L365.808775,15.859535L365.388688,18.750416 "/><path d="M364.665780,15.031439L365.808775,15.859535L365.388688,18.750416 "/><path d="M364.665780,15.031439L365.808775,15.859535 "/><path d="M366.536534,11.573210L369.862835,9.059780 "/><path d="M373.625561,19.627822L368.619473,18.575185 "/><path d="M373.793514,16.301700L376.446102,16.590648L376.790840,16.698430 "/><path d="M383.848259,16.688403L375.139883,13.924267L373.817956,15.965263L376.790840,16.698430 "/><path d="M383.848259,16.688403L375.139883,13.924267L373.817956,15.965263L376.790840,16.698430 "/><path d="M375.139883,13.924267L373.817956,15.965263 "/><path d="M388.862928,291.521487L391.606759,291.336964 "/><path d="M376.952233,16.717554L378.897509,18.613145 "/><path d="M386.775399,16.647555L384.398750,16.719768L384.112238,16.763535L384.066474,16.805971 "/><path d="M386.775399,16.647555L384.398750,16.719768L384.112238,16.763535L384.066474,16.805971 "/><path d="M386.775399,16.647555L384.398750,16.719768L384.112238,16.763535L384.066474,16.805971 "/><path d="M384.464939,20.441953L384.276809,18.256747L386.241726,17.980777L386.957688,16.898367 "/><path d="M384.464939,20.441953L384.276809,18.256747L386.241726,17.980777L386.957688,16.898367 "/><path d="M384.464939,20.441953L384.276809,18.256747L386.241726,17.980777L386.957688,16.898367 "/><path d="M384.628365,20.462746L389.908088,25.545516L394.327775,24.656819L405.751011,19.625929L421.497192,23.093554L422.571422,22.602255L437.793557,24.422608L460.925547,34.274963L470.260994,43.565405L474.844692,43.525150L481.211744,55.451563L482.747454,54.206755L489.407560,57.230880L487.627871,59.781514L491.315697,66.547642L481.487855,78.513589L478.490698,80.979212L471.039340,94.383448L469.337534,100.744170L473.739144,111.241176L473.595476,115.965158L470.314429,121.826745L485.860888,120.054116L490.653824,120.113238L509.199642,124.037856L522.365493,129.584517L520.676789,135.986039L527.311820,142.769929L534.253465,143.200181L551.399848,155.206346L558.873285,153.586500L567.695585,148.193932L568.047801,140.726085L577.845838,141.599499L576.734612,137.735280L581.146197,131.370059L585.992399,129.707130L591.618732,133.736972L592.082356,136.759452L599.619623,140.185683 "/><path d="M384.628365,20.462746L389.908088,25.545516L394.327775,24.656819L405.751011,19.625929L421.497192,23.093554L422.571422,22.602255L437.793557,24.422608L460.925547,34.274963L470.260994,43.565405L474.844692,43.525150L478.961610,43.726057 "/><path d="M405.751011,19.625929L394.327775,24.656819L389.908088,25.545516 "/><path d="M401.877804,296.532137L402.182585,300.631486 "/><path d="M411.720845,295.808942L410.510491,294.826861L413.102502,294.524359L411.720845,295.808942 Z "/><path d="M411.720845,295.808942L410.510491,294.826861L413.102502,294.524359L411.720845,295.808942 Z "/><path d="M410.510491,294.826861L411.720845,295.808942 "/><path d="M419.279228,290.913870L415.077247,294.440109 "/><path d="M422.571422,22.602255L421.497192,23.093554 "/><path d="M437.793557,24.422608L460.925547,34.274963 "/><path d="M448.277487,210.488317L447.423947,215.301033L444.455681,219.761425 "/><path d="M459.802192,210.013741L464.137851,214.890466 "/><path d="M471.564149,208.479295L467.577408,210.567559 "/><path d="M472.816048,226.144100L472.259959,229.741184 "/><path d="M477.745074,89.174587L469.337534,100.744170L473.739144,111.241176L473.595476,115.965158L470.314429,121.826745L486.204546,116.965058 "/><path d="M470.260994,43.565405L474.844692,43.525150 "/><path d="M473.739144,111.241176L473.595476,115.965158 "/><path d="M478.961610,43.726057L474.844692,43.525150L481.211744,55.451563L482.747454,54.206755L489.407560,57.230880L487.627871,59.781514L491.315697,66.547642L481.487855,78.513589L478.490698,80.979212L477.745074,89.174587 "/><path d="M478.961610,43.726057L474.844692,43.525150 "/><path d="M495.280142,244.130488L498.762266,242.423354L504.916253,243.199896 "/><path d="M486.204546,116.965058L485.860888,120.054116L490.653824,120.113238L509.199642,124.037856L522.365493,129.584517L520.676789,135.986039L527.311820,142.769929L534.253465,143.200181L551.399848,155.206346L558.873285,153.586500L567.695585,148.193932L568.047801,140.726085L577.845838,141.599499L576.734612,137.735280L581.146197,131.370059L585.992399,129.707130L591.618732,133.736972L592.082356,136.759452L599.619623,140.185683 "/><path d="M482.747454,54.206755L489.407560,57.230880 "/><path d="M514.078859,235.531660L507.982354,233.757082L506.227775,235.370669L506.657901,240.303195 "/><path d="M522.365493,129.584517L520.676789,135.986039 "/><path d="M527.311820,142.769929L534.253465,143.200181 "/><path d="M537.142574,231.676214L541.340804,233.694753 "/><path d="M564.511776,190.082409L554.370736,192.692988 "/><path d="M558.422189,229.146620L555.404644,236.503327 "/><path d="M560.080047,222.002812L562.613168,227.373539 "/><path d="M568.047801,140.726085L567.695585,148.193932 "/><path d="M572.631366,192.478318L571.410471,197.302084L574.884011,197.578194L578.309716,201.847232L584.001091,202.932405L592.858400,201.954223 "/><path d="M581.146197,131.370059L576.734612,137.735280L577.845838,141.599499 "/><path d="M592.082356,136.759452L591.618732,133.736972 "/><path d="M591.003355,187.761870L596.823858,187.244346L602.957825,191.390163 "/><path d="M592.610997,163.656858L595.564684,168.681582 "/><path d="M596.387741,160.391610L592.610997,163.656858 "/><path d="M600.869077,202.077751L598.757723,204.580452 "/><path d="M599.766221,140.228500L599.221116,152.354471L602.116402,154.150813L611.110161,155.034139L617.833557,151.445623 "/><path d="M617.833557,151.445623L611.110161,155.034139L602.116402,154.150813L599.221116,152.354471 "/></g></svg>